<?xml version="1.0" encoding="utf-8"?>
<!-- Generator: Adobe Illustrator 16.0.3, SVG Export Plug-In . SVG Version: 6.00 Build 0)  -->
<!DOCTYPE svg PUBLIC "-//W3C//DTD SVG 1.1//EN" "http://www.w3.org/Graphics/SVG/1.1/DTD/svg11.dtd">
<svg version="1.1" id="Layer_1" xmlns="http://www.w3.org/2000/svg" xmlns:xlink="http://www.w3.org/1999/xlink" x="0px" y="0px"
	 width="512px" height="512px" viewBox="0 0 512 512" style="enable-background:new 0 0 512 512;" xml:space="preserve">
<style type="text/css">
<![CDATA[
	.st0{fill:#14B6B9;}
	.st1{fill:#4B7BB2;}
	.st2{fill:#1E4384;}
	.st3{fill:#EF467F;}
	.st4{fill:#EF4823;}
	.st5{fill:#BCBCBC;}
	.st6{fill:#F26322;}
	.st7{fill:#F6851F;}
	.st8{fill:#283D5B;}
	.st9{fill:#2B8C5E;}
	.st10{fill:#FEBF10;}
	.st11{fill:none;}
	.st12{fill:#CBDB2D;}
	.st13{fill:#010101;}
	.st14{fill:#D03827;}
	.st15{fill:#3AB37C;}
	.st16{fill:#D6E5E5;}
]]>
</style>
<g>
	<g>
		<g>
			<path class="st8" d="M251.19,146.824c-3.445-2.334-7.209-3.067-11.19-3.885c-5.611-1.153-11.369-2.042-17.104-1.366
				c-10.582,1.247-18.794,7.466-26.183,14.758c-0.148,0.146-0.3,0.28-0.454,0.403c0.279,1.312,0.028,2.76-1.046,4.097
				c-11.869,14.775,4.988,27.51,18.148,32.627c14.962,5.818,31.978,6.178,41.924-8.362
				C263.075,173.707,263.636,155.257,251.19,146.824z"/>
		</g>
	</g>
	<g>
		<g>
			<path class="st14" d="M376.045,230.801c-1.777-17.272-6.169-34.36-13.239-50.242c-5.24-11.772-14.611-30.446-29.531-31.489
				c-0.98,1.973-2.139,3.863-3.345,5.738c-2.1,3.263-5.486,7.162-6.367,11.018c-0.695,3.044,3.596,6.584,5.438,8.621
				c3.177,3.513,6.899,7.079,9.146,11.297c5.504,10.336,8.108,22.448,10.805,33.758c2.771,11.617,4.72,23.595,4.145,35.578
				c-1.02,21.247-8.535,43.932-25.69,57.611c-3.614,2.882-14.872,8.717-12.536,14.418c2.244,5.477,6.093,10.047,9.393,14.929
				c7.65-3.99,13.688-12.943,18.444-19.467c6.259-8.588,12.689-17.252,18.119-26.389C372.809,276.024,378.46,254.28,376.045,230.801
				z"/>
		</g>
	</g>
	<g>
		<g>
			<path class="st8" d="M197.733,257.471c-0.324-5.719-0.941-11.512-3.064-16.883c-3.919-9.908-12.035-16.252-20.978-21.524
				c-0.18-0.106-0.347-0.218-0.506-0.336c-1.197,0.606-2.661,0.735-4.228,0.04c-17.324-7.684-25.312,11.874-26.884,25.907
				c-1.788,15.953,2.227,32.492,18.831,38.379c13.004,4.61,30.981,0.423,35.942-13.77
				C198.22,265.355,197.963,261.528,197.733,257.471z"/>
		</g>
	</g>
	<g>
		<g>
			<path class="st8" d="M238.798,315.748c-3.445-2.334-7.209-3.067-11.19-3.886c-5.611-1.153-11.369-2.042-17.104-1.366
				c-10.582,1.248-18.794,7.466-26.183,14.759c-0.148,0.146-0.3,0.279-0.454,0.403c0.279,1.312,0.028,2.76-1.046,4.097
				c-11.869,14.775,4.988,27.509,18.148,32.627c14.962,5.818,31.978,6.177,41.924-8.363
				C250.683,342.631,251.245,324.182,238.798,315.748z"/>
		</g>
	</g>
	<g>
		<g>
			<path class="st8" d="M282.719,251.528c-0.1-3.314-0.385-6.622-0.569-9.933c-8.868-0.584-17.763,0.105-26.649,0.344
				c0.303,0.607,0.477,1.337,0.465,2.201c-0.085,6.5-0.924,13.001-0.514,19.477c3.804,0.09,7.607,0.215,11.412,0.147
				c3.664-0.066,10.035,0.573,13.267-1.587c1.623-1.085,1.727-0.928,2.102-2.979C282.699,256.649,282.797,254.115,282.719,251.528z"
				/>
		</g>
	</g>
	<g>
		<g>
			<path class="st16" d="M404.459,210.274c-10.961-48.985-50.952-88.405-98.393-103.124c-22.383-6.945-46.258-9.306-69.421-5.125
				c-20.479,3.696-39.146,12.874-56.386,24.291c-18.534,12.273-36.119,27.005-49.267,45.077
				c-9.344,12.843-16.706,28.268-16.216,44.18c-0.029,0.134-0.058,0.269-0.067,0.417c-0.341,5.579-0.917,11.139-1.447,16.701
				c-0.464,0.199-0.949,0.342-1.44,0.406c-0.571,6.649-1.565,13.264-1.756,19.977c-0.199,7.017-0.188,14.045,0.185,21.056
				c0.734,13.78,2.482,27.6,6.225,40.909c5.57,19.81,15.007,38.943,30.341,53.033c17.627,16.196,40.326,24.355,63.838,27.289
				c51.002,6.362,103.457-12.779,140.875-47.534C388.76,313.247,416.102,262.302,404.459,210.274z M187.7,154.228
				c0.074-0.092,0.151-0.171,0.227-0.255c-0.384-1.364-0.096-2.893,1.273-4.244c6.406-6.323,13.538-12.514,22.134-15.625
				c7.834-2.835,16.171-3.292,24.384-2.081c9.182,1.354,18.937,3.226,25.607,10.292c5.506,5.832,8.915,13.27,9.446,21.324
				c1.113,16.876-7.973,33.984-23.722,40.921C219.702,216.605,161.229,187.182,187.7,154.228z M139.978,280.082
				c-18.653-23.345-5.204-87.407,33.435-70.269c0.107,0.048,0.204,0.102,0.305,0.154c1.22-0.721,2.771-0.835,4.429,0.143
				c7.754,4.571,15.565,9.877,20.776,17.389c4.749,6.845,7.328,14.786,8.263,23.035c1.045,9.223,1.736,19.131-3.383,27.39
				c-4.225,6.817-10.54,12.019-18.19,14.598C169.586,297.923,150.721,293.526,139.978,280.082z M234.657,373.484
				c-27.347,12.045-85.82-17.378-59.349-50.332c0.074-0.092,0.151-0.171,0.227-0.256c-0.384-1.364-0.096-2.893,1.273-4.244
				c6.406-6.323,13.538-12.513,22.134-15.624c7.834-2.835,16.171-3.292,24.384-2.081c9.182,1.354,18.937,3.226,25.607,10.292
				c5.506,5.832,8.915,13.269,9.446,21.324C259.492,349.439,250.406,366.547,234.657,373.484z M286.774,269.669
				c-4.217,3.652-11.318,3.857-16.589,4.008c-6.277,0.18-12.543-0.137-18.82-0.167c-2.926-0.015-4.885-1.743-5.371-4.602
				c-1.356-7.971-0.105-15.983,0-23.999c0.024-1.825,0.852-3.193,2.019-4.071c-3.074-2.628-2.473-8.769,2.583-8.8
				c12.475-0.078,24.888-1.318,37.337,0.078c2.084,0.234,4.006,2.447,4.032,4.523C292.101,247.465,296.01,261.669,286.774,269.669z
				 M367.411,304.464c-6.12,9.511-12.681,19.002-19.619,27.943c-5.534,7.132-12.144,15.53-20.694,19.359
				c-1.351,2.714-4.645,4.287-7.423,1.509c-1-1-2-2-2.999-3c-1.166-1.166-1.594-2.531-1.515-3.838
				c-3.589-5.153-7.646-10.079-9.729-16.021c-2.901-8.274,1.542-13.946,7.706-19.104c3.629-3.038,7.679-5.69,11.11-8.953
				c3.771-3.585,6.876-8.1,9.383-12.636c5.732-10.375,9.12-21.985,9.493-33.873c0.403-12.847-1.434-25.65-4.903-38.013
				c-2.993-10.663-4.697-22.958-12.081-31.651c-4.818-5.673-15.125-13.617-12.393-22.268c2.551-8.076,9.815-14.215,11.821-22.342
				c1.088-4.409,6.312-4.76,8.736-2.375c1.905,0.171,3.771,0.489,5.64,1.072c17.319,5.404,27.347,24.652,33.701,40.271
				c7.173,17.628,12.048,36.843,12.84,55.915C387.505,261,380.666,283.867,367.411,304.464z"/>
		</g>
	</g>
	<g>
		<g>
			<path class="st14" d="M475.772,159.648c-21.34-43.359-61.608-77.51-104.185-99.043c-30.639-15.498-64.69-25.74-99.125-27.54
				c-0.067,18.979-1.744,38.84,2.244,57.554c10.834,0.98,21.566,3.084,31.914,6.294c46.633,14.468,88.091,49.639,103.646,96.891
				c30.737,93.373-49.167,185.46-137.762,207.63c0.192,12.458,1.245,24.9,1.294,37.368c0.028,7.122,0.046,14.41-1.047,21.466
				c-0.074,0.475-0.153,0.96-0.239,1.449c39.875-4.825,78.604-18.48,111.641-41.728
				C462.646,364.758,521.763,253.092,475.772,159.648z"/>
		</g>
	</g>
	<g>
		<g>
			<path class="st8" d="M262.549,403.621c-5.244,0.992-10.503,1.748-15.759,2.224c-46.183,4.179-96.855-9.206-123.202-50.051
				c-11.422-17.708-17.957-38.053-21.089-58.798c-1.63-10.794-2.462-21.705-2.525-32.622c-0.033-5.699,0.08-11.4,0.398-17.092
				c0.35-6.259,1.589-12.499,1.827-18.726c0.093-2.447,1.622-4.073,3.455-4.788c-3.459-21.208,5.128-41.883,17.827-58.978
				c15.048-20.257,35.185-37.029,56.594-50.22c17.705-10.909,36.499-19.458,57.173-22.751c8.983-1.431,18.121-2.011,27.248-1.791
				c-3.321-18.596-2.044-37.817-2.001-56.609c0-0.22,0.015-0.431,0.038-0.637c-10.38-0.044-20.768,0.699-31.082,2.328
				c-78.904,12.461-155.354,70.33-177.907,147.928c0.017,0.859-0.206,1.748-0.737,2.609c-0.389,1.424-0.766,2.852-1.118,4.289
				c-0.501,1.012-0.958,2.035-1.39,3.066c-0.131,0.949-0.26,1.871-0.445,2.697c-0.922,4.109-1.983,8.18-2.733,12.326
				c-1.384,7.654-1.136,15.721-3.812,23.021c-0.234,2.115-0.49,4.221-0.794,6.307c-0.036,0.256-0.024,0.492,0.011,0.719
				c-0.475,4.389-0.883,8.791-1.287,13.205c-0.842,9.178-1.24,18.393-1.072,27.609c0.33,18.053,2.354,36.18,6.904,53.678
				c8.67,33.336,25.497,64.824,52.007,87.348c18.228,15.486,39.549,25.66,62.419,32.326c25.009,7.289,51.032,11.408,77.107,11.471
				c7.81,0.019,15.624-0.293,23.411-0.932c0.13-0.398,0.26-0.866,0.386-1.456c0.51-2.401,0.83-4.838,1.026-7.284
				c0.508-6.338,0.472-12.727,0.346-19.08C263.562,424.513,262.768,414.068,262.549,403.621z"/>
		</g>
	</g>
	<g>
		<g>
			<path d="M475.46,138.721c-25.208-40.398-65.945-71.646-108.668-91.566c-43.311-20.195-92.883-29.541-140.295-21.322
				c-81.824,14.182-159.954,74.66-182.875,155.631c-3.336,5.541-3.768,13.082-5.205,19.189c-1.015,4.303-1.729,8.689-2.326,13.068
				c-0.06,0.432-0.109,0.865-0.156,1.295c-0.098,0.264-0.188,0.533-0.248,0.832c-0.836,4.189-1.518,8.41-2.104,12.646
				c-0.033,0.074-0.061,0.148-0.096,0.223c-0.533,1.158-0.606,2.258-0.367,3.238c-1.014,8.078-1.688,16.207-2.263,24.316
				c-0.812,11.434-0.903,22.898-0.26,34.342c1.253,22.287,5.647,44.52,13.341,65.482c15.342,41.799,45.506,76.547,86.127,95.293
				c23.07,10.645,48.766,16.691,73.87,19.959c19.543,2.544,39.359,3.004,59.005,1.423c-3.208-1.257-4.983-6.102-1.438-8.764
				c0.064-0.112,0.143-0.265,0.239-0.493c0.09-0.212,0.18-0.46,0.271-0.735c-7.787,0.638-15.602,0.95-23.411,0.932
				c-26.075-0.062-52.099-4.182-77.107-11.471c-22.87-6.666-44.191-16.84-62.419-32.326c-26.51-22.523-43.337-54.012-52.007-87.348
				c-4.551-17.498-6.574-35.625-6.904-53.678c-0.168-9.217,0.23-18.432,1.072-27.609c0.404-4.414,0.812-8.816,1.287-13.205
				c-0.035-0.227-0.047-0.463-0.011-0.719c0.304-2.086,0.56-4.191,0.794-6.307c2.676-7.301,2.428-15.367,3.812-23.021
				c0.75-4.146,1.812-8.217,2.733-12.326c0.186-0.826,0.314-1.748,0.445-2.697c0.432-1.031,0.889-2.055,1.39-3.066
				c0.353-1.438,0.729-2.865,1.118-4.289c0.531-0.861,0.754-1.75,0.737-2.609c22.554-77.598,99.003-135.467,177.907-147.928
				c10.314-1.629,20.702-2.373,31.082-2.328c0.648-5.823,9.949-6.357,9.935-0.133c0,0.138-0.002,0.276-0.003,0.415
				c34.435,1.8,68.486,12.042,99.125,27.54c42.576,21.533,82.845,55.684,104.185,99.043c45.99,93.443-13.127,205.109-91.619,260.342
				c-33.037,23.247-71.766,36.902-111.641,41.728c-0.687,3.903-1.87,8.107-5.238,10.44c-0.148,0.104-0.297,0.194-0.446,0.278
				c4.715-0.445,9.419-1.006,14.105-1.687c50.868-7.389,98.493-29.662,136.1-64.754c36.375-33.939,64.978-77.57,78.113-125.768
				C508.262,232.111,501.952,181.176,475.46,138.721z"/>
		</g>
	</g>
	<g>
		<g>
			<path class="st13" d="M410.267,193.804c-15.555-47.252-57.014-82.423-103.646-96.891c-10.348-3.21-21.08-5.313-31.914-6.294
				c-3.987-18.714-2.311-38.575-2.244-57.554c-3.308-0.173-6.62-0.268-9.932-0.282c-0.022,0.206-0.037,0.417-0.038,0.637
				c-0.042,18.792-1.32,38.013,2.001,56.609c-9.127-0.22-18.264,0.36-27.248,1.791c-20.674,3.293-39.468,11.842-57.173,22.751
				c-21.409,13.19-41.546,29.963-56.594,50.22c-12.699,17.095-21.286,37.769-17.827,58.978c-1.833,0.715-3.361,2.341-3.455,4.788
				c-0.238,6.227-1.477,12.466-1.827,18.726c-0.318,5.691-0.431,11.393-0.398,17.092c0.063,10.917,0.895,21.828,2.525,32.622
				c3.133,20.745,9.667,41.09,21.089,58.798c26.347,40.845,77.019,54.229,123.202,50.051c5.256-0.476,10.516-1.231,15.759-2.224
				c0.219,10.447,1.013,20.892,1.22,31.338c0.126,6.353,0.162,12.742-0.346,19.08c-0.196,2.446-0.516,4.883-1.026,7.284
				c-0.125,0.59-0.255,1.058-0.386,1.456c3.507-0.288,7.009-0.639,10.501-1.062c0.086-0.489,0.166-0.974,0.239-1.449
				c1.093-7.056,1.075-14.345,1.047-21.466c-0.049-12.467-1.102-24.909-1.294-37.368C361.1,379.265,441.004,287.177,410.267,193.804
				z M351.53,347.826c-37.418,34.755-89.873,53.896-140.875,47.534c-23.512-2.933-46.211-11.092-63.838-27.289
				c-15.334-14.09-24.771-33.224-30.341-53.033c-3.743-13.309-5.49-27.128-6.225-40.909c-0.373-7.011-0.384-14.039-0.185-21.056
				c0.19-6.713,1.185-13.327,1.756-19.977c0.491-0.064,0.976-0.207,1.44-0.406c0.531-5.562,1.106-11.122,1.447-16.701
				c0.009-0.148,0.038-0.283,0.067-0.417c-0.49-15.912,6.872-31.337,16.216-44.18c13.148-18.072,30.732-32.804,49.267-45.077
				c17.24-11.417,35.908-20.594,56.386-24.291c23.164-4.181,47.038-1.82,69.421,5.125c47.441,14.718,87.431,54.139,98.393,103.124
				C416.102,262.302,388.76,313.247,351.53,347.826z"/>
		</g>
	</g>
	<g>
		<g>
			<path class="st13" d="M262.53,32.783c3.312,0.015,6.624,0.109,9.932,0.282c0-0.139,0.002-0.277,0.003-0.415
				C272.479,26.426,263.179,26.96,262.53,32.783z"/>
		</g>
	</g>
	<g>
		<g>
			<path class="st13" d="M270.771,163.639c-0.531-8.055-3.94-15.492-9.446-21.324c-6.67-7.065-16.425-8.938-25.607-10.292
				c-8.213-1.211-16.55-0.754-24.384,2.081c-8.596,3.111-15.728,9.302-22.134,15.625c-1.37,1.352-1.657,2.88-1.273,4.244
				c-0.076,0.084-0.153,0.164-0.227,0.255c-26.471,32.954,32.002,62.377,59.349,50.332
				C262.797,197.623,271.884,180.515,270.771,163.639z M255.285,185.095c-9.946,14.54-26.962,14.18-41.924,8.362
				c-13.161-5.117-30.017-17.852-18.148-32.627c1.074-1.337,1.325-2.785,1.046-4.097c0.154-0.123,0.306-0.257,0.454-0.403
				c7.389-7.292,15.601-13.511,26.183-14.758c5.736-0.676,11.494,0.213,17.104,1.366c3.981,0.818,7.746,1.551,11.19,3.885
				C263.636,155.257,263.075,173.707,255.285,185.095z"/>
		</g>
	</g>
	<g>
		<g>
			<path class="st13" d="M207.186,250.533c-0.935-8.249-3.514-16.19-8.263-23.035c-5.211-7.512-13.022-12.817-20.776-17.389
				c-1.658-0.978-3.209-0.863-4.429-0.143c-0.101-0.052-0.197-0.106-0.305-0.154c-38.639-17.138-52.088,46.924-33.435,70.269
				c10.743,13.444,29.608,17.841,45.635,12.439c7.65-2.579,13.965-7.781,18.19-14.598
				C208.922,269.664,208.231,259.756,207.186,250.533z M196.847,269.283c-4.961,14.192-22.938,18.379-35.942,13.77
				c-16.604-5.887-20.619-22.426-18.831-38.379c1.572-14.033,9.56-33.591,26.884-25.907c1.567,0.695,3.031,0.567,4.228-0.04
				c0.159,0.118,0.326,0.23,0.506,0.336c8.943,5.272,17.059,11.616,20.978,21.524c2.124,5.371,2.74,11.164,3.064,16.883
				C197.963,261.528,198.22,265.355,196.847,269.283z"/>
		</g>
	</g>
	<g>
		<g>
			<path class="st13" d="M258.379,332.563c-0.531-8.056-3.94-15.493-9.446-21.324c-6.67-7.066-16.425-8.938-25.607-10.292
				c-8.213-1.211-16.55-0.754-24.384,2.081c-8.596,3.111-15.728,9.301-22.134,15.624c-1.37,1.352-1.657,2.88-1.273,4.244
				c-0.076,0.084-0.153,0.164-0.227,0.256c-26.471,32.954,32.002,62.377,59.349,50.332
				C250.406,366.547,259.492,349.439,258.379,332.563z M242.893,354.019c-9.946,14.54-26.962,14.181-41.924,8.363
				c-13.161-5.118-30.017-17.852-18.148-32.627c1.074-1.337,1.325-2.785,1.046-4.097c0.154-0.124,0.306-0.257,0.454-0.403
				c7.389-7.292,15.601-13.511,26.183-14.759c5.736-0.676,11.494,0.213,17.104,1.366c3.981,0.818,7.746,1.552,11.19,3.886
				C251.245,324.182,250.683,342.631,242.893,354.019z"/>
		</g>
	</g>
	<g>
		<g>
			<path class="st13" d="M291.964,236.64c-0.026-2.076-1.948-4.289-4.032-4.523c-12.449-1.396-24.862-0.156-37.337-0.078
				c-5.056,0.032-5.656,6.172-2.583,8.8c-1.167,0.877-1.995,2.246-2.019,4.071c-0.105,8.016-1.356,16.028,0,23.999
				c0.486,2.858,2.445,4.587,5.371,4.602c6.276,0.031,12.542,0.347,18.82,0.167c5.271-0.151,12.372-0.356,16.589-4.008
				C296.01,261.669,292.101,247.465,291.964,236.64z M282.232,259.198c-0.375,2.05-0.479,1.893-2.102,2.979
				c-3.232,2.161-9.604,1.521-13.267,1.587c-3.805,0.068-7.608-0.057-11.412-0.147c-0.41-6.476,0.429-12.977,0.514-19.477
				c0.011-0.864-0.163-1.594-0.465-2.201c8.886-0.238,17.781-0.928,26.649-0.344c0.184,3.311,0.469,6.619,0.569,9.933
				C282.797,254.115,282.699,256.649,282.232,259.198z"/>
		</g>
	</g>
	<g>
		<g>
			<path class="st13" d="M386.485,236.458c-0.792-19.072-5.667-38.286-12.84-55.915c-6.354-15.618-16.382-34.866-33.701-40.271
				c-1.869-0.583-3.735-0.901-5.64-1.072c-2.425-2.385-7.648-2.034-8.736,2.375c-2.005,8.127-9.27,14.267-11.821,22.342
				c-2.732,8.651,7.575,16.595,12.393,22.268c7.383,8.694,9.088,20.988,12.081,31.651c3.47,12.362,5.307,25.166,4.903,38.013
				c-0.373,11.888-3.761,23.498-9.493,33.873c-2.507,4.536-5.613,9.051-9.383,12.636c-3.431,3.263-7.481,5.915-11.11,8.953
				c-6.164,5.159-10.607,10.83-7.706,19.104c2.083,5.942,6.141,10.869,9.729,16.021c-0.079,1.308,0.349,2.673,1.515,3.838
				c1,1,2,2,2.999,3c2.778,2.778,6.072,1.205,7.423-1.509c8.551-3.83,15.16-12.228,20.694-19.359
				c6.938-8.94,13.499-18.432,19.619-27.943C380.666,283.867,387.505,261,386.485,236.458z M360.827,296.183
				c-5.43,9.136-11.86,17.801-18.119,26.389c-4.755,6.524-10.794,15.478-18.444,19.467c-3.3-4.882-7.149-9.452-9.393-14.929
				c-2.336-5.702,8.922-11.537,12.536-14.418c17.156-13.679,24.67-36.364,25.69-57.611c0.575-11.983-1.375-23.961-4.145-35.578
				c-2.697-11.311-5.301-23.422-10.805-33.758c-2.247-4.218-5.969-7.785-9.146-11.297c-1.842-2.037-6.133-5.577-5.438-8.621
				c0.881-3.856,4.267-7.755,6.367-11.018c1.206-1.875,2.364-3.765,3.345-5.738c14.92,1.043,24.291,19.717,29.531,31.489
				c7.069,15.882,11.462,32.97,13.239,50.242C378.46,254.28,372.809,276.024,360.827,296.183z"/>
		</g>
	</g>
</g>
</svg>
